Format : MPEG-4
Format profile : Base Media / Version 2
Codec ID : mp42
File size : 411 MiB
Duration : 1h 39mn
Overall bit rate : 578 Kbps
Encoded date : UTC 2010-10-28 20:35:22
Tagged date : UTC 2010-10-28 20:36:39
Writing application : mp4creator 1.6.1d

Video
ID : 1
Format : AVC
Format/Info : Advanced Video Codec
Format profile : Baseline@L1.3
Format settings, CABAC : No
Format settings, ReFrames : 1 frame
Codec ID : avc1
Codec ID/Info : Advanced Video Coding
Duration : 1h 39mn
Bit rate mode : Variable
Bit rate : 512 Kbps
Width : 480 pixels
Height : 272 pixels
Display aspect ratio : 16:9
Original display aspect ratio : 16:9
Frame rate mode : Constant
Frame rate : 24.000 fps
Resolution : 24 bits
Colorimetry : 4:2:0
Scan type : Progressive
Bits/(Pixel*Frame) : 0.163
Stream size : 364 MiB (89%)
Encoded date : UTC 2010-10-28 20:35:22
Tagged date : UTC 2010-10-28 20:36:33

Audio
ID : 2
Format : AAC
Format/Info : Advanced Audio Codec
Format version : Version 4
Format profile : LC
Format settings, SBR : Yes
Format settings, PS : No
Codec ID : 40
Duration : 1h 39mn
Bit rate mode : Variable
Bit rate : 66.15 Kbps
Maximum bit rate : 135 Kbps
Channel(s) : 2 channels
Channel positions : L R
Sampling rate : 48.0 KHz
Resolution : 16 bits
Stream size : 46.1 MiB (11%)
Encoded date : UTC 2010-10-28 20:36:34
Tagged date : UTC 2010-10-28 20:36:39

Charlie St. Cloud (Zac Efron) is a sailor who wins a boat race along with his younger brother Sam (Charlie Tahan), and receives a sailing scholarship to Stanford University. Charlie graduates from high school and after getting home from his graduation ceremony, Charlie promises Sam, that they will practice baseball together every day until he leaves. Later that night, Charlie was supposed to go to a graduation party with his friends, but his mother Claire (Kim Basinger) makes him babysit Sam while she picks up another shift at her job as a nurse. When Sam is asleep, Charlie tries to sneak out and go to the party. But he is caught by Sam when he turns his fog lights on and asks Charlie to drive to his friend Tommy‘s house, Charlie gives in when Sam makes compliments about his car.
 
http://www.imdb.com/title/tt1438254/

screens
 
http://img408.imageshack.us/img408/6262/charliestcloudh264vicem.jpg 
http://img841.imageshack.us/img841/6262/charliestcloudh264vicem.jpg 
http://img525.imageshack.us/img525/6262/charliestcloudh264vicem.jpg 
http://img51.imageshack.us/img51/6262/charliestcloudh264vicem.jpg
 
http://img221.imageshack.us/img221/6262/charliestcloudh264vicem.jpg 